<svg width="32" height="32" viewBox="0 0 32 32" fill="none" xmlns="http://www.w3.org/2000/svg">
<path d="M7.11111 18.3914C6.22222 18.3914 6 17.1569 6 16.5396C6 15.3544 6.74074 14.8112 7.11111 14.6877L18.5926 14.3174C18.716 13.3297 18.963 11.2062 18.963 10.6136C18.963 9.87291 19.7037 9.87291 20.0741 10.2433L25.6296 15.7988C25.8185 15.9877 26 16.2119 26 16.5396C26 16.8359 25.7531 17.1569 25.6296 17.2803L20.0741 22.8359C19.4815 23.4285 18.963 22.8359 18.963 22.4655L18.5926 19.1322C15.1358 18.8853 8 18.3914 7.11111 18.3914Z" fill="#BDBDBD"/>
</svg>
