<svg width="52" height="52" viewBox="0 0 52 52" fill="none" xmlns="http://www.w3.org/2000/svg">
<rect width="52" height="52" rx="4" fill="#333333"/>
<path d="M35.4871 32.1867L19.8131 16.5127C19.1295 15.8291 18.0213 15.8291 17.3388 16.5127L16.5127 17.3375C15.8291 18.0213 15.8291 19.1295 16.5127 19.8121L32.1867 35.4861C32.8705 36.1697 33.9788 36.1697 34.6613 35.4861L35.4861 34.6613C36.1709 33.9788 36.1709 32.8703 35.4871 32.1867V32.1867Z" fill="#EBECED"/>
<path d="M32.1867 16.5129L16.5127 32.1869C15.8291 32.8705 15.8291 33.979 16.5127 34.6615L17.3375 35.4863C18.0213 36.1699 19.1295 36.1699 19.8121 35.4863L35.4871 19.8133C36.171 19.1298 36.171 18.0215 35.4871 17.339L34.6624 16.5142C33.9788 15.8293 32.8705 15.8293 32.1867 16.5129V16.5129Z" fill="#EBECED"/>
</svg>
